# Blender v2.79 (sub 0) OBJ File: ''
# www.blender.org
mtllib CombatArmorTorsoDecals.mtl
o ChestDecal_Med:0
v -3.972656 7.706252 2.465626
v -4.153125 7.293752 3.234376
v -1.605469 7.743752 3.290626
v -1.585547 8.151565 2.465626
v 0.000123 7.851565 3.290626
v 0.000123 8.259377 2.465626
v -1.584375 8.076565 0.684376
v -3.904688 7.635940 0.684376
v 0.000123 8.189065 0.684376
v -1.652344 7.809378 -2.240623
v -1.584375 7.945315 -0.843750
v 0.000123 8.053128 -0.843750
v 0.000123 7.935941 -2.203123
v -4.455469 6.703127 3.965626
v -3.028125 6.487502 4.753125
v -1.464844 6.337502 5.484376
v 0.000123 6.445314 5.484376
v -3.836719 7.560940 -0.609375
v -1.599609 6.271877 5.540626
v 3.975000 7.706252 2.465626
v 1.585547 8.151565 2.465626
v 1.605469 7.743752 3.290626
v 4.155469 7.293752 3.234376
v 3.904688 7.635940 0.684376
v 1.584375 8.076565 0.684376
v 1.652344 7.809378 -2.240623
v 1.584375 7.945315 -0.843750
v 3.028125 6.487502 4.753125
v 4.455469 6.703127 3.965626
v 1.464844 6.337502 5.484376
v 3.836719 7.560940 -0.609375
v 1.600781 6.271877 5.540626
vt 0.972168 0.572021
vt 0.997070 0.679443
vt 0.690918 0.672119
vt 0.685547 0.564697
vt 0.500977 0.669189
vt 0.500488 0.562744
vt 0.687988 0.354980
vt 0.967773 0.356934
vt 0.500000 0.354004
vt 0.697754 0.007324
vt 0.688965 0.173340
vt 0.499756 0.173340
vt 0.499512 0.011719
vt 1.038086 0.790649
vt 0.869629 0.891785
vt 0.679688 0.981583
vt 0.501465 0.977356
vt 0.959961 0.201172
vt 0.698242 0.989731
vt 0.029175 0.573730
vt 0.315430 0.565186
vt 0.310791 0.672852
vt 0.004395 0.681152
vt 0.032806 0.358398
vt 0.312500 0.355469
vt 0.301270 0.007812
vt 0.310791 0.173828
vt 0.132935 0.893127
vt -0.036499 0.792603
vt 0.322754 0.982239
vt 0.039764 0.203125
vt 0.304443 0.990448
vn -0.1854 0.9584 0.2169
vn -0.1778 0.8417 0.5098
vn -0.1143 0.8628 0.4925
vn -0.1297 0.9711 0.2005
vn -0.0039 0.8704 0.4923
vn -0.0039 0.9797 0.2007
vn -0.1301 0.9892 -0.0670
vn -0.1927 0.9795 -0.0590
vn -0.0040 0.9977 -0.0670
vn -0.1143 0.9893 -0.0907
vn -0.1298 0.9874 -0.0905
vn -0.0039 0.9959 -0.0905
vn -0.0040 0.9959 -0.0906
vn -0.2003 0.7972 0.5695
vn -0.1776 0.8170 0.5486
vn -0.1300 0.8316 0.5400
vn -0.0039 0.8410 0.5410
vn -0.1848 0.9793 -0.0826
vn -0.1780 0.8266 0.5339
vn 0.1777 0.9598 0.2172
vn 0.1220 0.9720 0.2006
vn 0.1065 0.8636 0.4929
vn 0.1701 0.8429 0.5104
vn 0.1852 0.9809 -0.0590
vn 0.1223 0.9902 -0.0670
vn 0.1065 0.9902 -0.0907
vn 0.1221 0.9884 -0.0905
vn 0.1699 0.8182 0.5493
vn 0.1927 0.7985 0.5703
vn 0.1223 0.8324 0.5405
vn 0.1772 0.9807 -0.0827
vn 0.1703 0.8277 0.5347
usemtl Material.000001
s 1
f 1/1/1 2/2/2 3/3/3
f 3/3/3 4/4/4 1/1/1
f 3/3/3 5/5/5 6/6/6
f 6/6/6 4/4/4 3/3/3
f 1/1/1 4/4/4 7/7/7
f 7/7/7 8/8/8 1/1/1
f 4/4/4 6/6/6 9/9/9
f 9/9/9 7/7/7 4/4/4
f 10/10/10 11/11/11 12/12/12
f 12/12/12 13/13/13 10/10/10
f 2/2/2 14/14/14 15/15/15
f 15/15/15 3/3/3 2/2/2
f 3/3/3 16/16/16 17/17/17
f 17/17/17 5/5/5 3/3/3
f 18/18/18 8/8/8 7/7/7
f 7/7/7 11/11/11 18/18/18
f 7/7/7 9/9/9 12/12/12
f 12/12/12 11/11/11 7/7/7
f 18/18/18 11/11/11 10/10/10
f 16/16/16 3/3/3 15/15/15
f 15/15/15 19/19/19 16/16/16
f 20/20/20 21/21/21 22/22/22
f 22/22/22 23/23/23 20/20/20
f 22/22/22 21/21/21 6/6/6
f 6/6/6 5/5/5 22/22/22
f 20/20/20 24/24/24 25/25/25
f 25/25/25 21/21/21 20/20/20
f 21/21/21 25/25/25 9/9/9
f 9/9/9 6/6/6 21/21/21
f 26/26/26 13/13/13 12/12/12
f 12/12/12 27/27/27 26/26/26
f 23/23/23 22/22/22 28/28/28
f 28/28/28 29/29/29 23/23/23
f 22/22/22 5/5/5 17/17/17
f 17/17/17 30/30/30 22/22/22
f 31/31/31 27/27/27 25/25/25
f 25/25/25 24/24/24 31/31/31
f 25/25/25 27/27/27 12/12/12
f 12/12/12 9/9/9 25/25/25
f 31/31/31 26/26/26 27/27/27
f 30/30/30 32/32/32 28/28/28
f 28/28/28 22/22/22 30/30/30
