# exported with NifSkope

mtllib GatlingLaserBarrel2.mtl

# GatlingLaserBarrel:1

g GatlingLaserBarrel:1
usemtl Material.000001

v -3.2421875 18.4375 1.46875
v -3.2421875 41.8125 1.46875
v -3.853515625 41.8125 2.080078125
v -7.48828125 41.8125 1.46875
v -7.48828125 18.4375 1.46875
v -6.875 18.4375 2.080078125
v -7.48828125 18.4375 1.46875
v -7.48828125 41.8125 1.46875
v -7.48828125 41.8125 -1.5
v -3.2421875 41.8125 -1.5
v -3.2421875 41.8125 1.46875
v -3.2421875 18.4375 1.46875
v 3.25390625 18.4375 -1.484375
v 3.25390625 41.8125 -1.484375
v 3.865234375 41.8125 -2.09375
v 7.5 41.8125 -1.484375
v 7.5 18.4375 -1.484375
v 6.88671875 18.4375 -2.09375
v 7.5 18.4375 -1.484375
v 7.5 41.8125 -1.484375
v 7.5 41.8125 1.4853515625
v 3.25390625 41.8125 1.4853515625
v 3.25390625 41.8125 -1.484375
v 3.25390625 18.4375 -1.484375
v 1.482421875 18.4375 3.240234375
v 1.482421875 41.8125 3.240234375
v 2.09375 41.8125 3.8515625
v 1.482421875 41.8125 7.484375
v 1.482421875 18.4375 7.484375
v 2.09375 18.4375 6.875
v 1.482421875 18.4375 7.484375
v 1.482421875 41.8125 7.484375
v -1.486328125 41.8125 7.484375
v -1.486328125 41.8125 3.240234375
v 1.482421875 41.8125 3.240234375
v 1.482421875 18.4375 3.240234375
v 3.25390625 18.4375 1.4853515625
v 7.5 18.4375 1.4853515625
v -1.486328125 18.4375 7.484375
v -1.486328125 18.4375 3.240234375
v -7.48828125 18.4375 -1.5
v -3.2421875 18.4375 -1.5
v 2.09375 41.8125 6.875
v 2.09375 18.4375 3.8515625
v -6.875 41.8125 2.080078125
v -3.853515625 18.4375 2.080078125
v 6.890625 41.8125 -2.09375
v 3.865234375 18.4375 -2.09375
v -6.73046875 38.03125 -2.111328125
v -4 38.03125 -2.111328125
v -3.853515625 18.4375 -2.111328125
v -2.09765625 38.03125 6.73046875
v -2.09765625 38.03125 3.998046875
v -2.09765625 18.4375 3.8515625
v 6.7421875 38.03125 2.095703125
v 4.01171875 38.03125 2.095703125
v 3.865234375 18.4375 2.095703125
v -6.875 18.4375 -2.111328125
v -2.09765625 18.4375 6.875
v 6.88671875 18.4375 2.095703125
v 4.01171875 38.03125 -2.09375
v 6.7421875 38.03125 -2.09375
v 2.09375 38.03125 3.998046875
v 2.09375 38.03125 6.73046875
v -4 38.03125 2.080078125
v -6.73046875 38.03125 2.080078125
v -2.09765625 41.8125 3.8515625
v 3.865234375 41.8125 2.095703125
v -3.853515625 41.8125 -2.111328125
v 6.890625 41.8125 2.095703125
v -2.09765625 41.8125 6.875
v -6.875 41.8125 -2.111328125
v 4.3125 41.8125 -1.8037109375
v 1.802734375 41.8125 4.30078125
v -4.30078125 41.8125 1.7890625
v -1.806640625 41.8125 6.42578125
v -1.806640625 41.8125 4.30078125
v -6.4296875 41.8125 -1.8203125
v -4.30078125 41.8125 -1.8203125
v 6.44140625 41.8125 1.8046875
v 4.3125 41.8125 1.8046875
v 6.44140625 41.8125 -1.8037109375
v -6.4296875 41.8125 1.7890625
v 1.802734375 41.8125 6.42578125
v -4.30078125 41.8125 1.7890625
v -4.30078125 41.8125 1.7890625
v -4 38.03125 2.080078125
v -3.853515625 18.4375 2.080078125
v 4.3125 41.8125 -1.8037109375
v 4.3125 41.8125 -1.8037109375
v 4.01171875 38.03125 -2.09375
v 3.865234375 18.4375 -2.09375
v 1.802734375 41.8125 4.30078125
v 2.09375 38.03125 3.998046875
v 2.09375 18.4375 3.8515625
v 1.802734375 41.8125 4.30078125
vt 1.4912109375 0.08154296875
vt 1.125 0.08154296875
vt 1.125 0.095703125
vt 1.125 0.15771484375
vt 1.4912109375 0.15771484375
vt 1.4912109375 0.1435546875
vt 0.490966796875 0.20458984375
vt 0.12469482421875 0.20458984375
vt 0.12469482421875 0.15771484375
vt 0.12469482421875 0.08154296875
vt 0.12469482421875 0.03515625
vt 0.490966796875 0.03515625
vt 1.4912109375 0.08154296875
vt 1.125 0.08154296875
vt 1.125 0.095703125
vt 1.125 0.15771484375
vt 1.4912109375 0.15771484375
vt 1.4912109375 0.1435546875
vt 0.490966796875 0.20458984375
vt 0.12469482421875 0.20458984375
vt 0.12469482421875 0.15771484375
vt 0.12469482421875 0.08154296875
vt 0.12469482421875 0.03515625
vt 0.490966796875 0.03515625
vt 1.4912109375 0.08154296875
vt 1.125 0.08154296875
vt 1.125 0.095703125
vt 1.125 0.15771484375
vt 1.4912109375 0.15771484375
vt 1.4912109375 0.1435546875
vt 0.490966796875 0.20458984375
vt 0.12469482421875 0.20458984375
vt 0.12469482421875 0.15771484375
vt 0.12469482421875 0.08154296875
vt 0.12469482421875 0.03515625
vt 0.490966796875 0.03515625
vt 0.490966796875 0.08154296875
vt 0.490966796875 0.15771484375
vt 0.490966796875 0.15771484375
vt 0.490966796875 0.08154296875
vt 0.490966796875 0.15771484375
vt 0.490966796875 0.08154296875
vt 1.125 0.1435546875
vt 1.4912109375 0.095703125
vt 1.125 0.1435546875
vt 1.4912109375 0.095703125
vt 1.125 0.1435546875
vt 1.4912109375 0.095703125
vt 0.1842041015625 0.14111328125
vt 0.1842041015625 0.09814453125
vt 0.490966796875 0.095703125
vt 0.1842041015625 0.14111328125
vt 0.1842041015625 0.09814453125
vt 0.490966796875 0.095703125
vt 0.1842041015625 0.14111328125
vt 0.1842041015625 0.09814453125
vt 0.490966796875 0.095703125
vt 0.490966796875 0.1435546875
vt 0.490966796875 0.1435546875
vt 0.490966796875 0.1435546875
vt 1.1845703125 0.09814453125
vt 1.1845703125 0.14111328125
vt 1.1845703125 0.09814453125
vt 1.1845703125 0.14111328125
vt 1.1845703125 0.09814453125
vt 1.1845703125 0.14111328125
vt 0.12469482421875 0.095703125
vt 0.12469482421875 0.095703125
vt 0.12469482421875 0.095703125
vt 0.12469482421875 0.1435546875
vt 0.12469482421875 0.1435546875
vt 0.12469482421875 0.1435546875
vt 1.125 0.103515625
vt 1.125 0.103515625
vt 1.125 0.103515625
vt 0.12469482421875 0.13623046875
vt 0.12469482421875 0.103515625
vt 0.12469482421875 0.13623046875
vt 0.12469482421875 0.103515625
vt 0.12469482421875 0.13623046875
vt 0.12469482421875 0.103515625
vt 1.125 0.13623046875
vt 1.125 0.13623046875
vt 1.125 0.13623046875
vt 1.125 0.103515625
vt 1.125 0.103515625
vt 1.1845703125 0.09814453125
vt 1.4912109375 0.095703125
vt 1.125 0.103515625
vt 1.125 0.103515625
vt 1.1845703125 0.09814453125
vt 1.4912109375 0.095703125
vt 1.125 0.103515625
vt 1.1845703125 0.09814453125
vt 1.4912109375 0.095703125
vt 1.125 0.103515625
vn 0.92156863212585449 -0.0039215688593685627 0.3803921639919281
vn 0.92156863212585449 -0.0039215688593685627 0.3803921639919281
vn 0.098039217293262482 -0.0039215688593685627 0.99215686321258545
vn -0.92941176891326904 -0.0039215688593685627 0.3803921639919281
vn -0.92941176891326904 -0.0039215688593685627 0.3803921639919281
vn -0.38823530077934265 -0.0039215688593685627 0.92156863212585449
vn -0.92941176891326904 -0.0039215688593685627 0.3803921639919281
vn -0.92941176891326904 -0.0039215688593685627 0.3803921639919281
vn -0.92941176891326904 -0.0039215688593685627 -0.38823530077934265
vn 0.92156863212585449 -0.0039215688593685627 -0.38823530077934265
vn 0.92156863212585449 -0.0039215688593685627 0.3803921639919281
vn 0.92156863212585449 -0.0039215688593685627 0.3803921639919281
vn -0.92941176891326904 -0.0039215688593685627 -0.38823530077934265
vn -0.92941176891326904 -0.0039215688593685627 -0.38823530077934265
vn -0.10588235408067703 -0.0039215688593685627 -1
vn 0.92156863212585449 -0.0039215688593685627 -0.38823530077934265
vn 0.92156863212585449 -0.0039215688593685627 -0.38823530077934265
vn 0.3803921639919281 -0.0039215688593685627 -0.92941176891326904
vn 0.92156863212585449 -0.0039215688593685627 -0.38823530077934265
vn 0.92156863212585449 -0.0039215688593685627 -0.38823530077934265
vn 0.92156863212585449 -0.0039215688593685627 0.3803921639919281
vn -0.92941176891326904 -0.0039215688593685627 0.3803921639919281
vn -0.92941176891326904 -0.0039215688593685627 -0.38823530077934265
vn -0.92941176891326904 -0.0039215688593685627 -0.38823530077934265
vn 0.3803921639919281 -0.0039215688593685627 -0.92941176891326904
vn 0.3803921639919281 -0.0039215688593685627 -0.92941176891326904
vn 0.99215686321258545 -0.0039215688593685627 -0.10588235408067703
vn 0.3803921639919281 -0.0039215688593685627 0.92156863212585449
vn 0.3803921639919281 -0.0039215688593685627 0.92156863212585449
vn 0.92156863212585449 -0.0039215688593685627 0.3803921639919281
vn 0.3803921639919281 -0.0039215688593685627 0.92156863212585449
vn 0.3803921639919281 -0.0039215688593685627 0.92156863212585449
vn -0.38823530077934265 -0.0039215688593685627 0.92156863212585449
vn -0.38823530077934265 -0.0039215688593685627 -0.92941176891326904
vn 0.3803921639919281 -0.0039215688593685627 -0.92941176891326904
vn 0.3803921639919281 -0.0039215688593685627 -0.92941176891326904
vn -0.92941176891326904 -0.0039215688593685627 0.3803921639919281
vn 0.92156863212585449 -0.0039215688593685627 0.3803921639919281
vn -0.38823530077934265 -0.0039215688593685627 0.92156863212585449
vn -0.38823530077934265 -0.0039215688593685627 -0.92941176891326904
vn -0.92941176891326904 -0.0039215688593685627 -0.38823530077934265
vn 0.92156863212585449 -0.0039215688593685627 -0.38823530077934265
vn 0.99215686321258545 0.011764706112444401 0.10588235408067703
vn 0.92156863212585449 -0.0039215688593685627 -0.38823530077934265
vn -0.11372549086809158 0.011764706112444401 0.99215686321258545
vn 0.3803921639919281 -0.0039215688593685627 0.92156863212585449
vn 0.10588235408067703 0.011764706112444401 -1
vn -0.38823530077934265 -0.0039215688593685627 -0.92941176891326904
vn 0.011764706112444401 0.011764706112444401 -1
vn -0.019607843831181526 0.011764706112444401 -1
vn 0.3803921639919281 -0.0039215688593685627 -0.92941176891326904
vn -1 0.011764706112444401 -0.019607843831181526
vn -1 0.011764706112444401 0.011764706112444401
vn -0.92941176891326904 -0.0039215688593685627 -0.38823530077934265
vn -0.019607843831181526 0.011764706112444401 0.99215686321258545
vn 0.011764706112444401 0.011764706112444401 0.99215686321258545
vn -0.38823530077934265 -0.0039215688593685627 0.92156863212585449
vn -0.38823530077934265 -0.0039215688593685627 -0.92941176891326904
vn -0.92941176891326904 -0.0039215688593685627 0.3803921639919281
vn 0.3803921639919281 -0.0039215688593685627 0.92156863212585449
vn -0.91372549533843994 0.050980392843484879 -0.4117647111415863
vn -0.019607843831181526 0.011764706112444401 -1
vn 0.40392157435417175 0.050980392843484879 -0.91372549533843994
vn 0.99215686321258545 0.011764706112444401 -0.019607843831181526
vn 0.90588235855102539 0.050980392843484879 0.40392157435417175
vn 0.011764706112444401 0.011764706112444401 0.99215686321258545
vn -1 0.011764706112444401 -0.11372549086809158
vn -0.11372549086809158 0.011764706112444401 0.99215686321258545
vn 0.10588235408067703 0.011764706112444401 -1
vn 0.10588235408067703 0.011764706112444401 0.99215686321258545
vn -1 0.011764706112444401 0.10588235408067703
vn -0.11372549086809158 0.011764706112444401 -1
vn 0.25490197539329529 0.035294119268655777 -0.9686274528503418
vn 0.96078431606292725 0.035294119268655777 0.25490197539329529
vn -0.26274511218070984 0.035294119268655777 0.96078431606292725
vn -0.9686274528503418 0.050980392843484879 -0.27058824896812439
vn -0.9686274528503418 0.050980392843484879 0.26274511218070984
vn 0.26274511218070984 0.050980392843484879 -0.9686274528503418
vn -0.27058824896812439 0.050980392843484879 -0.9686274528503418
vn -0.27058824896812439 0.050980392843484879 0.96078431606292725
vn 0.26274511218070984 0.050980392843484879 0.96078431606292725
vn -0.27058824896812439 0.050980392843484879 -0.9686274528503418
vn 0.26274511218070984 0.050980392843484879 0.96078431606292725
vn 0.96078431606292725 0.050980392843484879 -0.27058824896812439
vn -0.26274511218070984 0.035294119268655777 0.96078431606292725
vn -0.26274511218070984 0.035294119268655777 0.96078431606292725
vn 0.90588235855102539 0.050980392843484879 0.40392157435417175
vn 0.3803921639919281 -0.0039215688593685627 0.92156863212585449
vn 0.25490197539329529 0.035294119268655777 -0.9686274528503418
vn 0.25490197539329529 0.035294119268655777 -0.9686274528503418
vn -0.91372549533843994 0.050980392843484879 -0.4117647111415863
vn -0.38823530077934265 -0.0039215688593685627 -0.92941176891326904
vn 0.96078431606292725 0.035294119268655777 0.25490197539329529
vn 0.40392157435417175 0.050980392843484879 -0.91372549533843994
vn 0.92156863212585449 -0.0039215688593685627 -0.38823530077934265
vn 0.96078431606292725 0.035294119268655777 0.25490197539329529
f 1/1/1 2/2/2 3/3/3
f 3/3/3 46/46/46 1/1/1
f 46/46/46 3/3/3 75/75/75
f 46/46/46 65/65/65 66/66/66
f 66/66/66 6/6/6 46/46/46
f 83/83/83 66/66/66 65/65/65
f 66/66/66 83/83/83 45/45/45
f 45/45/45 6/6/6 66/66/66
f 65/65/65 85/85/85 83/83/83
f 6/6/6 45/45/45 4/4/4
f 4/4/4 5/5/5 6/6/6
f 7/7/7 8/8/8 9/9/9
f 9/9/9 41/41/41 7/7/7
f 41/41/41 9/9/9 72/72/72
f 72/72/72 58/58/58 41/41/41
f 49/49/49 58/58/58 72/72/72
f 72/72/72 78/78/78 49/49/49
f 51/51/51 58/58/58 49/49/49
f 49/49/49 50/50/50 51/51/51
f 50/50/50 49/49/49 78/78/78
f 78/78/78 79/79/79 50/50/50
f 69/69/69 51/51/51 50/50/50
f 50/50/50 79/79/79 69/69/69
f 51/51/51 69/69/69 10/10/10
f 10/10/10 42/42/42 51/51/51
f 12/12/12 42/42/42 10/10/10
f 10/10/10 11/11/11 12/12/12
f 13/13/13 14/14/14 15/15/15
f 15/15/15 48/48/48 13/13/13
f 48/48/48 15/15/15 73/73/73
f 48/48/48 61/61/61 62/62/62
f 62/62/62 18/18/18 48/48/48
f 47/47/47 18/18/18 62/62/62
f 62/62/62 82/82/82 47/47/47
f 82/82/82 62/62/62 61/61/61
f 61/61/61 89/89/89 82/82/82
f 18/18/18 47/47/47 16/16/16
f 16/16/16 17/17/17 18/18/18
f 19/19/19 20/20/20 21/21/21
f 21/21/21 38/38/38 19/19/19
f 38/38/38 21/21/21 70/70/70
f 70/70/70 60/60/60 38/38/38
f 55/55/55 60/60/60 70/70/70
f 70/70/70 80/80/80 55/55/55
f 57/57/57 60/60/60 55/55/55
f 55/55/55 56/56/56 57/57/57
f 56/56/56 55/55/55 80/80/80
f 80/80/80 81/81/81 56/56/56
f 68/68/68 57/57/57 56/56/56
f 56/56/56 81/81/81 68/68/68
f 57/57/57 68/68/68 22/22/22
f 22/22/22 37/37/37 57/57/57
f 24/24/24 37/37/37 22/22/22
f 22/22/22 23/23/23 24/24/24
f 25/25/25 26/26/26 27/27/27
f 27/27/27 44/44/44 25/25/25
f 44/44/44 27/27/27 74/74/74
f 44/44/44 63/63/63 64/64/64
f 64/64/64 30/30/30 44/44/44
f 43/43/43 30/30/30 64/64/64
f 64/64/64 84/84/84 43/43/43
f 84/84/84 64/64/64 63/63/63
f 63/63/63 96/96/96 84/84/84
f 30/30/30 43/43/43 28/28/28
f 28/28/28 29/29/29 30/30/30
f 31/31/31 32/32/32 33/33/33
f 33/33/33 39/39/39 31/31/31
f 39/39/39 33/33/33 71/71/71
f 71/71/71 59/59/59 39/39/39
f 52/52/52 59/59/59 71/71/71
f 71/71/71 76/76/76 52/52/52
f 54/54/54 59/59/59 52/52/52
f 52/52/52 53/53/53 54/54/54
f 53/53/53 52/52/52 76/76/76
f 76/76/76 77/77/77 53/53/53
f 67/67/67 54/54/54 53/53/53
f 53/53/53 77/77/77 67/67/67
f 54/54/54 67/67/67 34/34/34
f 34/34/34 40/40/40 54/54/54
f 36/36/36 40/40/40 34/34/34
f 34/34/34 35/35/35 36/36/36
f 86/86/86 87/87/87 88/88/88
f 90/90/90 91/91/91 92/92/92
f 93/93/93 94/94/94 95/95/95
