# exported with NifSkope

mtllib T51BodyDecals.mtl

# PA_T51_BodyDECAL:0

g PA_T51_BodyDECAL:0
usemtl Material.000001

v 9.0301036834716797e-06 7.23046875 59.4375
v 2.873046875 7.1171875 59.4375
v 2.671875 7.90234375 56.4375
v 9.0301036834716797e-06 8.03125 56.375
v 2.896484375 5.66015625 62.125
v 9.059906005859375e-06 5.734375 62.21875
v 8.5532665252685547e-06 3.541015625 64.1875
v 3.009765625 3.576171875 63.96875
v 9.0301036834716797e-06 6.60546875 61
v 2.892578125 6.515625 60.9375
v 6.41015625 6.1171875 61
v 6.4609375 6.8359375 59.375
v 6.2265625 7.18359375 58.1875
v 3.79296875 5.26953125 62.40625
v 3.5 5.1015625 62.59375
v 4.16015625 5.2734375 62.375
v 5.515625 7.54296875 57
v -2.671875 7.90234375 56.4375
v -2.873046875 7.1171875 59.4375
v -2.896484375 5.66015625 62.125
v -3.009765625 3.576171875 63.96875
v -2.890625 6.515625 60.9375
v -6.4609375 6.8359375 59.375
v -6.41015625 6.1171875 61
v -3.79296875 5.26953125 62.40625
v -3.5 5.1015625 62.59375
v -4.16015625 5.2734375 62.375
v -4.51953125 7.73828125 56.5625
v -6.2265625 7.18359375 58.1875
v 4.51953125 7.74609375 56.5625
v -5.515625 7.54296875 57
v 4.7109375 -15.7578125 61.1875
v 6 -15.1484375 61
v 6 -13.234375 68.125
v 4.7109375 -13.8515625 68.3125
vt 0.59228515625 0.21044921875
vt 0.4267578125 0.21142578125
vt 0.438720703125 0.03125
vt 0.59423828125 0.02783203125
vt 0.423095703125 0.38671875
vt 0.58984375 0.39111328125
vt 0.58740234375 0.560546875
vt 0.4130859375 0.547607421875
vt 0.59130859375 0.3056640625
vt 0.425048828125 0.302734375
vt 0.2210693359375 0.314453125
vt 0.2186279296875 0.21337890625
vt 0.23193359375 0.140625
vt 0.37060546875 0.41357421875
vt 0.38720703125 0.427734375
vt 0.349365234375 0.4111328125
vt 0.273193359375 0.06787109375
vt 0.75 0.03515625
vt 0.7578125 0.21630859375
vt 0.7568359375 0.39208984375
vt 0.76220703125 0.55322265625
vt 0.75732421875 0.30810546875
vt 0.9658203125 0.22265625
vt 0.9609375 0.32421875
vt 0.80908203125 0.42041015625
vt 0.79150390625 0.4345703125
vt 0.83056640625 0.41845703125
vt 0.857421875 0.04833984375
vt 0.9541015625 0.14990234375
vt 0.331298828125 0.04150390625
vt 0.9150390625 0.07666015625
vt 0.159912109375 0.724609375
vt 0.1636962890625 0.637939453125
vt 0.609375 0.6572265625
vt 0.60595703125 0.743896484375
vn -0.0039215688593685627 0.94509804248809814 0.30980393290519714
vn 0.058823529630899429 0.94509804248809814 0.30980393290519714
vn 0.043137256056070328 0.96078431606292725 0.24705882370471954
vn -0.0039215688593685627 0.96078431606292725 0.24705882370471954
vn 0.074509806931018829 0.74901962280273438 0.65490198135375977
vn -0.0039215688593685627 0.74117648601531982 0.66274511814117432
vn -0.0039215688593685627 0.66274511814117432 0.74117648601531982
vn 0.035294119268655777 0.66274511814117432 0.74117648601531982
vn -0.0039215688593685627 0.87450981140136719 0.48235294222831726
vn 0.066666670143604279 0.86666667461395264 0.48235294222831726
vn 0.08235294371843338 0.87450981140136719 0.46666666865348816
vn 0.074509806931018829 0.92941176891326904 0.34117648005485535
vn 0.074509806931018829 0.96078431606292725 0.24705882370471954
vn 0.066666670143604279 0.74901962280273438 0.64705884456634521
vn 0.027450980618596077 0.66274511814117432 0.74117648601531982
vn 0.066666670143604279 0.78039216995239258 0.60784316062927246
vn 0.074509806931018829 0.96078431606292725 0.24705882370471954
vn -0.058823529630899429 0.96078431606292725 0.24705882370471954
vn -0.066666670143604279 0.94509804248809814 0.30980393290519714
vn -0.08235294371843338 0.74901962280273438 0.65490198135375977
vn -0.043137256056070328 0.66274511814117432 0.74117648601531982
vn -0.074509806931018829 0.86666667461395264 0.48235294222831726
vn -0.08235294371843338 0.92941176891326904 0.34117648005485535
vn -0.090196080505847931 0.87450981140136719 0.46666666865348816
vn -0.074509806931018829 0.74901962280273438 0.64705884456634521
vn -0.035294119268655777 0.66274511814117432 0.74117648601531982
vn -0.074509806931018829 0.78039216995239258 0.60784316062927246
vn -0.08235294371843338 0.96078431606292725 0.24705882370471954
vn -0.08235294371843338 0.96078431606292725 0.24705882370471954
vn 0.074509806931018829 0.96078431606292725 0.24705882370471954
vn -0.08235294371843338 0.96078431606292725 0.24705882370471954
vn 0.43529412150382996 -0.86666667461395264 0.23137255012989044
vn 0.43529412150382996 -0.86666667461395264 0.23137255012989044
vn 0.43529412150382996 -0.86666667461395264 0.23137255012989044
vn 0.43529412150382996 -0.86666667461395264 0.23137255012989044
f 1/1/1 2/2/2 3/3/3
f 3/3/3 4/4/4 1/1/1
f 5/5/5 6/6/6 7/7/7
f 7/7/7 8/8/8 5/5/5
f 9/9/9 10/10/10 2/2/2
f 2/2/2 1/1/1 9/9/9
f 2/2/2 10/10/10 11/11/11
f 11/11/11 12/12/12 2/2/2
f 12/12/12 13/13/13 2/2/2
f 6/6/6 5/5/5 10/10/10
f 10/10/10 9/9/9 6/6/6
f 10/10/10 5/5/5 14/14/14
f 5/5/5 8/8/8 15/15/15
f 11/11/11 10/10/10 16/16/16
f 5/5/5 15/15/15 14/14/14
f 10/10/10 14/14/14 16/16/16
f 2/2/2 13/13/13 17/17/17
f 18/18/18 19/19/19 1/1/1
f 1/1/1 4/4/4 18/18/18
f 20/20/20 21/21/21 7/7/7
f 7/7/7 6/6/6 20/20/20
f 9/9/9 1/1/1 19/19/19
f 19/19/19 22/22/22 9/9/9
f 19/19/19 23/23/23 24/24/24
f 24/24/24 22/22/22 19/19/19
f 6/6/6 9/9/9 22/22/22
f 22/22/22 20/20/20 6/6/6
f 22/22/22 25/25/25 20/20/20
f 20/20/20 26/26/26 21/21/21
f 24/24/24 27/27/27 22/22/22
f 20/20/20 25/25/25 26/26/26
f 22/22/22 27/27/27 25/25/25
f 28/28/28 19/19/19 18/18/18
f 29/29/29 23/23/23 19/19/19
f 17/17/17 30/30/30 2/2/2
f 30/30/30 3/3/3 2/2/2
f 28/28/28 31/31/31 19/19/19
f 31/31/31 29/29/29 19/19/19
f 32/32/32 33/33/33 34/34/34
f 34/34/34 35/35/35 32/32/32
