# Blender v2.79 (sub 0) OBJ File: ''
# www.blender.org
mtllib T51LeftFoot.mtl
o PA_T51_LLeg:2
v -12.796875 -7.597657 4.679686
v -12.781250 -7.632812 -0.010896
v -12.039062 -8.804688 -0.016572
v -12.117188 -8.585938 4.683592
v -11.429688 -9.195313 4.699217
v -10.921875 -9.476563 4.695311
v -10.859375 -9.234376 6.820311
v -11.343750 -8.960938 6.820311
v -7.449219 -9.476563 4.707030
v -6.949219 -9.195313 4.707030
v -7.023438 -8.976563 6.820311
v -7.527344 -9.250001 6.820311
v -11.609375 -7.980470 5.593749
v -12.406250 -6.816407 5.570312
v -6.136719 -8.265626 4.683592
v -6.625000 -7.757813 5.578124
v -7.347656 -8.468751 5.589842
v -10.906250 -9.578125 -0.020738
v -9.656250 -9.976562 -0.023454
v -9.179688 -9.867188 4.699217
v -10.523438 -8.742188 5.585936
v -9.195312 -9.000001 5.585936
v -11.046875 -8.460938 5.589842
v -7.875000 -8.750001 5.585936
v -12.492188 -6.164063 5.621093
v -12.359375 -6.746095 6.414062
v -10.500000 -8.562501 8.148437
v -11.031250 -8.375001 8.171874
v -7.355469 -8.382813 8.171874
v -7.859375 -8.656251 8.171874
v -5.515625 -7.019532 4.679687
v -6.121094 -8.460938 -0.014360
v -5.488281 -7.250000 -0.009614
v -6.960938 -9.265625 -0.019334
v -8.289062 -9.875000 -0.022752
v -13.218750 -5.011719 2.033202
v -13.359375 -5.105469 -0.005322
v -5.281250 -5.804688 4.679687
v -5.605469 -5.410157 5.164062
v -6.070312 -6.570313 5.605468
v -5.171875 -4.992188 3.048827
v -5.152344 -5.105469 -0.006005
v -5.121094 -4.199219 2.046874
v -13.375000 -4.378907 1.479491
v -6.542969 -7.441407 6.414061
v -7.230469 -7.632814 7.874999
v -6.984375 -7.984376 7.753905
v -6.789062 -7.011720 6.492187
v -12.234375 -5.277345 4.824218
v -12.640625 -5.750001 4.804687
v -12.117188 -5.707032 5.683593
v -12.742188 -4.578125 2.124999
v -12.867188 -3.986328 1.595703
v -11.984375 -6.402345 6.539062
v -11.500000 -7.894533 7.816405
v -11.218750 -7.550783 7.945311
v -9.195312 -8.820313 8.140623
v -9.179688 -8.468751 8.234374
v -10.781250 -7.949220 8.218749
v -7.675781 -8.007813 8.234374
v -6.019531 -4.937501 5.179687
v -6.437500 -6.132813 5.699218
v -5.628906 -4.593750 3.166015
v -5.589844 -3.804688 2.164062
v -13.476562 -3.035156 1.110351
v -12.976562 -2.560547 1.108398
v -12.976562 -2.560547 -0.000672
v -13.476562 -3.035156 -0.000947
v -5.113281 -3.251953 1.363281
v -5.093750 -3.035156 -0.005387
v -5.566406 -2.560547 -0.005387
v -5.574219 -2.574219 1.133789
v -5.593750 -3.001953 1.641601
vt 0.344971 0.479492
vt 0.247925 0.465332
vt 0.242676 0.496582
vt 0.341064 0.502441
vt 0.340820 0.520996
vt 0.339600 0.533203
vt 0.384521 0.532715
vt 0.385010 0.525879
vt 0.340088 0.605957
vt 0.341797 0.618652
vt 0.385498 0.612305
vt 0.384766 0.604980
vt 0.365723 0.499023
vt 0.369385 0.470703
vt 0.343262 0.643799
vt 0.367920 0.646729
vt 0.365479 0.628662
vt 0.239868 0.528076
vt 0.237793 0.559082
vt 0.336426 0.569580
vt 0.362549 0.545166
vt 0.361816 0.569092
vt 0.364502 0.510498
vt 0.362305 0.593018
vt 0.373535 0.457520
vt 0.387695 0.473633
vt 0.415771 0.539307
vt 0.415527 0.526367
vt 0.415771 0.610840
vt 0.415771 0.598389
vt 0.347412 0.670898
vt 0.244507 0.650635
vt 0.248779 0.680908
vt 0.241821 0.624512
vt 0.238647 0.591553
vt 0.301025 0.417480
vt 0.258057 0.410645
vt 0.351562 0.695068
vt 0.364502 0.700439
vt 0.372559 0.673096
vt 0.321533 0.718018
vt 0.257080 0.726807
vt 0.303467 0.738281
vt 0.291504 0.401855
vt 0.386963 0.648682
vt 0.417969 0.628662
vt 0.410156 0.624756
vt 0.394531 0.656250
vt 0.363770 0.432617
vt 0.357666 0.444336
vt 0.380615 0.447266
vt 0.309814 0.406738
vt 0.302002 0.393066
vt 0.396729 0.467773
vt 0.411377 0.510254
vt 0.420166 0.507080
vt 0.416748 0.568848
vt 0.424072 0.569092
vt 0.425049 0.524902
vt 0.425293 0.611572
vt 0.371582 0.710449
vt 0.382080 0.681152
vt 0.329590 0.728516
vt 0.311768 0.748779
vt 0.289062 0.373047
vt 0.296143 0.361328
vt 0.272949 0.352539
vt 0.267334 0.367188
vt 0.292480 0.759888
vt 0.265381 0.769897
vt 0.269043 0.783813
vt 0.292725 0.777832
vt 0.302734 0.767090
vn -0.8965 -0.3171 0.3093
vn -0.9281 -0.3720 0.0117
vn -0.7148 -0.6992 0.0117
vn -0.6992 -0.6289 0.3398
vn -0.6509 -0.7367 0.1832
vn -0.2625 -0.9440 0.1998
vn 0.2160 -0.9465 0.2396
vn -0.9287 -0.3017 0.2155
vn 0.2628 -0.9455 0.1922
vn 0.6801 -0.7115 0.1769
vn 0.9361 -0.2883 0.2014
vn -0.2156 -0.9524 0.2155
vn -0.6901 -0.6121 0.3860
vn -0.9247 -0.2692 0.2692
vn 0.7772 -0.5325 0.3353
vn 0.7590 -0.5387 0.3657
vn 0.9488 -0.1850 0.2559
vn -0.4424 -0.8966 0.0196
vn -0.1207 -0.9925 0.0195
vn -0.0039 -0.9282 0.3721
vn 0.3319 -0.8941 0.3006
vn -0.0039 -0.9074 0.4203
vn -0.9348 -0.2308 0.2699
vn -0.3257 -0.8985 0.2943
vn -0.9221 0.2315 0.3100
vn -0.9146 -0.0040 0.4043
vn -0.1060 -0.6792 0.7263
vn -0.5117 -0.4258 0.7462
vn 0.5887 -0.3279 0.7389
vn 0.1054 -0.6834 0.7224
vn 0.9009 -0.3030 0.3108
vn 0.7985 -0.6019 0.0118
vn 0.9453 -0.3256 0.0196
vn 0.5610 -0.8278 0.0039
vn 0.2453 -0.9694 0.0117
vn -0.9463 0.1767 0.2709
vn -0.9859 -0.1598 0.0506
vn 0.9477 0.0197 0.3185
vn 0.7064 0.3118 0.6354
vn 0.7527 -0.0197 0.6581
vn 0.9432 0.2644 0.2013
vn 0.9951 -0.0983 0.0040
vn 0.9181 0.2640 0.2956
vn -0.9001 0.1140 0.4205
vn 0.9367 -0.1225 0.3280
vn 0.9001 -0.1612 0.4048
vn 0.7403 0.3365 0.5820
vn -0.7259 0.5925 0.3492
vn -0.8820 0.3410 0.3253
vn -0.7269 0.5304 0.4361
vn -0.6254 0.5860 0.5152
vn -0.4437 0.3416 0.8285
vn -0.6551 0.4590 0.6002
vn -0.8308 -0.2379 0.5031
vn -0.6016 0.2241 0.7667
vn -0.0196 -0.7946 0.6068
vn 0.0118 -0.2397 0.9708
vn -0.2249 0.0039 0.9744
vn 0.2322 0.0354 0.9720
vn 0.6356 0.5092 0.5803
vn 0.5328 0.2723 0.8012
vn 0.6652 0.6416 0.3818
vn 0.6049 0.5179 0.6049
vn -0.8107 0.3643 0.4583
vn -0.6377 0.6612 0.3951
vn -0.6952 0.7188 -0.0039
vn -0.9345 0.3558 0.0039
vn 0.8857 0.3582 0.2953
vn 0.9137 0.3995 0.0752
vn 0.7468 0.6599 0.0830
vn 0.7851 0.5957 0.1696
vn 0.6127 0.5179 0.5969
usemtl Material.000025
s 1
f 1/1/1 2/2/2 3/3/3
f 3/3/3 4/4/4 1/1/1
f 5/5/5 6/6/6 7/7/7
f 7/7/7 8/8/8 5/5/5
f 9/9/9 10/10/10 11/11/11
f 11/11/11 12/12/12 9/9/9
f 1/1/1 4/4/4 13/13/13
f 13/13/13 14/14/14 1/1/1
f 15/15/15 16/16/16 17/17/17
f 17/17/17 10/10/10 15/15/15
f 4/4/4 3/3/3 18/18/18
f 18/18/18 5/5/5 4/4/4
f 6/6/6 18/18/18 19/19/19
f 19/19/19 20/20/20 6/6/6
f 21/21/21 6/6/6 20/20/20
f 20/20/20 22/22/22 21/21/21
f 23/23/23 13/13/13 4/4/4
f 4/4/4 5/5/5 23/23/23
f 24/24/24 22/22/22 20/20/20
f 20/20/20 9/9/9 24/24/24
f 25/25/25 14/14/14 26/26/26
f 14/14/14 13/13/13 26/26/26
f 8/8/8 7/7/7 27/27/27
f 27/27/27 28/28/28 8/8/8
f 11/11/11 29/29/29 30/30/30
f 30/30/30 12/12/12 11/11/11
f 31/31/31 15/15/15 32/32/32
f 32/32/32 33/33/33 31/31/31
f 10/10/10 34/34/34 32/32/32
f 32/32/32 15/15/15 10/10/10
f 20/20/20 35/35/35 9/9/9
f 2/2/2 36/36/36 37/37/37
f 30/30/30 24/24/24 12/12/12
f 11/11/11 17/17/17 29/29/29
f 9/9/9 12/12/12 24/24/24
f 23/23/23 8/8/8 28/28/28
f 5/5/5 8/8/8 23/23/23
f 6/6/6 21/21/21 7/7/7
f 27/27/27 7/7/7 21/21/21
f 17/17/17 11/11/11 10/10/10
f 31/31/31 38/38/38 39/39/39
f 39/39/39 40/40/40 31/31/31
f 41/41/41 42/42/42 43/43/43
f 38/38/38 41/41/41 39/39/39
f 37/37/37 36/36/36 44/44/44
f 16/16/16 40/40/40 45/45/45
f 16/16/16 15/15/15 31/31/31
f 31/31/31 40/40/40 16/16/16
f 46/46/39 47/47/46 45/45/45
f 45/45/45 48/48/47 46/46/39
f 49/49/48 50/50/49 25/25/25
f 25/25/25 51/51/50 49/49/48
f 36/36/36 50/50/49 49/49/48
f 49/49/48 52/52/51 36/36/36
f 44/44/44 36/36/36 52/52/51
f 52/52/51 53/53/52 44/44/44
f 54/54/53 26/26/26 55/55/54
f 55/55/54 56/56/55 54/54/53
f 27/27/27 57/57/56 58/58/57
f 58/58/57 59/59/58 27/27/27
f 29/29/29 47/47/46 46/46/39
f 46/46/39 60/60/59 29/29/29
f 56/56/55 55/55/54 28/28/28
f 28/28/28 59/59/58 56/56/55
f 30/30/30 29/29/29 60/60/59
f 25/25/25 26/26/26 54/54/53
f 54/54/53 51/51/50 25/25/25
f 40/40/40 39/39/39 61/61/60
f 61/61/60 62/62/61 40/40/40
f 63/63/62 41/41/41 43/43/43
f 43/43/43 64/64/63 63/63/62
f 39/39/39 41/41/41 63/63/62
f 63/63/62 61/61/60 39/39/39
f 65/65/64 44/44/44 53/53/52
f 53/53/52 66/66/65 65/65/64
f 67/67/66 68/68/67 65/65/64
f 65/65/64 66/66/65 67/67/66
f 69/69/68 70/70/69 71/71/70
f 71/71/70 72/72/71 69/69/68
f 69/69/68 72/72/71 73/73/72
f 48/48/47 45/45/45 40/40/40
f 40/40/40 62/62/61 48/48/47
f 24/24/24 30/30/30 57/57/56
f 57/57/56 22/22/22 24/24/24
f 69/69/68 73/73/72 64/64/63
f 64/64/63 43/43/43 69/69/68
f 26/26/26 13/13/13 55/55/54
f 55/55/54 13/13/13 23/23/23
f 23/23/23 28/28/28 55/55/54
f 27/27/27 21/21/21 22/22/22
f 22/22/22 57/57/56 27/27/27
f 17/17/17 16/16/16 47/47/46
f 47/47/46 29/29/29 17/17/17
f 16/16/16 45/45/45 47/47/46
f 31/31/31 33/33/33 42/42/42
f 38/38/38 31/31/31 42/42/42
f 41/41/41 38/38/38 42/42/42
f 50/50/49 1/1/1 14/14/14
f 14/14/14 25/25/25 50/50/49
f 20/20/20 19/19/19 35/35/35
f 35/35/35 34/34/34 10/10/10
f 10/10/10 9/9/9 35/35/35
f 18/18/18 6/6/6 5/5/5
f 68/68/67 37/37/37 44/44/44
f 44/44/44 65/65/64 68/68/67
f 36/36/36 2/2/2 1/1/1
f 1/1/1 50/50/49 36/36/36
f 43/43/43 42/42/42 69/69/68
f 69/69/68 42/42/42 70/70/69
f 27/27/27 59/59/58 28/28/28
f 57/57/56 30/30/30 60/60/59
f 60/60/59 58/58/57 57/57/56
