# Blender v2.79 (sub 0) OBJ File: ''
# www.blender.org
mtllib T51RightFoot.mtl
o PA_T51_RLeg:2
v 12.593750 -3.945314 9.921874
v 5.421875 -4.437501 9.140624
v 4.632812 -4.296876 9.015624
v 12.765625 -7.597657 4.679686
v 12.085938 -8.585938 4.683592
v 12.007812 -8.804688 -0.016572
v 12.742188 -7.632812 -0.010896
v 11.390625 -9.195313 4.699217
v 11.312500 -8.960938 6.820311
v 10.828125 -9.234376 6.820311
v 10.890625 -9.476563 4.695311
v 7.414062 -9.476563 4.707030
v 7.496094 -9.250001 6.820311
v 6.992188 -8.976563 6.820311
v 6.914062 -9.195313 4.707030
v 12.375000 -6.816407 5.570312
v 11.578125 -7.980470 5.593749
v 6.105469 -8.265626 4.683592
v 7.316406 -8.468751 5.589842
v 6.593750 -7.757813 5.578124
v 10.875000 -9.578125 -0.020738
v 9.148438 -9.867188 4.699217
v 9.617188 -9.976562 -0.023454
v 10.492188 -8.742188 5.585936
v 9.156250 -9.000001 5.585936
v 11.015625 -8.460938 5.589842
v 7.843750 -8.750001 5.585936
v 12.460938 -6.164063 5.621093
v 12.328125 -6.746095 6.414062
v 11.000000 -8.375001 8.171874
v 10.460938 -8.562501 8.148437
v 7.828125 -8.656251 8.171874
v 7.320312 -8.382813 8.171874
v 5.484375 -7.019532 4.679687
v 5.457031 -7.250000 -0.009614
v 6.089844 -8.460938 -0.014360
v 6.929688 -9.265625 -0.019334
v 8.257812 -9.875000 -0.022752
v 13.320312 -5.105469 -0.005322
v 13.187500 -5.011719 2.033202
v 6.039062 -6.570313 5.605468
v 5.570312 -5.410157 5.164062
v 5.250000 -5.804688 4.679687
v 5.140625 -4.992188 3.048827
v 5.089844 -4.199219 2.046874
v 5.117188 -5.105469 -0.006005
v 13.343750 -4.378907 1.479491
v 6.511719 -7.441407 6.414061
v 7.199219 -7.632814 7.874999
v 6.757812 -7.011720 6.492187
v 6.953125 -7.984376 7.753905
v 12.203125 -5.277345 4.824218
v 12.085938 -5.707032 5.683593
v 12.609375 -5.750001 4.804687
v 12.710938 -4.578125 2.124999
v 12.835938 -3.986328 1.595703
v 11.945312 -6.402345 6.539062
v 11.179688 -7.550783 7.945311
v 11.468750 -7.894533 7.816405
v 10.750000 -7.949220 8.218749
v 9.148438 -8.468751 8.234374
v 9.164062 -8.820313 8.140623
v 7.644531 -8.007813 8.234374
v 6.402344 -6.132813 5.699218
v 5.984375 -4.937501 5.179687
v 5.597656 -4.593750 3.166015
v 5.558594 -3.804688 2.164062
v 13.437500 -3.035156 1.110351
v 12.945312 -2.560547 1.108398
v 12.945312 -2.560547 -0.000671
v 13.445312 -3.035156 -0.000946
v 5.082031 -3.251953 1.363281
v 5.542969 -2.574219 1.133789
v 5.535156 -2.560547 -0.005387
v 5.062500 -3.035156 -0.005387
v 5.562500 -3.001953 1.641601
v 11.781250 -7.078127 10.992187
v 10.523438 -8.070314 11.554687
v 11.421875 -8.484377 9.929687
v 12.015625 -7.703126 9.617187
v 10.125000 -9.054689 10.085936
v 8.117188 -8.648439 11.531249
v 5.984375 -8.062502 10.921874
v 7.164062 -9.062502 9.789061
v 5.492188 -7.019533 10.359374
v 5.832031 -8.359377 9.296874
v 5.281250 -5.335939 9.539062
v 12.085938 -5.332033 10.187499
v 12.054688 -6.476564 9.835937
v 5.292969 -4.429689 9.117187
v 8.632812 -9.250002 10.031248
v 5.500000 -7.105470 8.617187
v 5.367188 -6.574220 9.148437
v 14.398438 -5.636720 7.093749
v 14.453125 -4.582032 6.226562
v 14.382812 -3.933595 7.218750
v 14.320312 -2.988282 7.929687
v 13.507812 -4.000001 9.648437
v 14.203125 -4.406251 9.179687
v 13.492188 -4.683596 10.273437
v 14.148438 -4.996095 9.781249
v 13.468750 -6.019533 10.507812
v 14.140625 -5.910158 9.945312
v 13.523438 -7.191408 9.828124
v 14.179688 -6.710939 9.484374
v 13.632812 -7.656251 8.562499
v 14.250000 -7.027345 8.617187
v 13.742188 -7.191407 7.292968
v 14.328125 -6.710939 7.746093
v 13.804688 -6.058595 6.562499
v 12.296875 -4.683595 10.164062
v 12.531250 -3.919924 9.804687
v 12.273438 -6.019533 10.398437
v 12.328125 -7.191408 9.726562
v 12.437500 -7.656251 8.460937
v 12.546875 -7.191407 7.191405
v 12.664062 -6.062501 6.472655
v 12.562500 -2.572267 9.796875
v 14.296875 -1.984376 8.125000
v 14.296875 -0.846681 8.023438
v 12.570312 -0.841798 9.710938
v 12.546875 0.808592 9.328125
v 14.296875 0.254882 7.421875
v 13.929688 -4.785157 5.207030
v 14.007812 0.942382 6.742188
v 12.359375 1.433592 8.500000
v 4.335938 -3.509767 8.156249
v 5.300781 -3.310548 8.312499
v 5.453125 -3.310548 6.824218
v 4.453125 -3.509767 6.808593
v 4.246094 -4.378908 9.187499
v 5.187500 -4.273439 9.453124
v 4.226562 -5.710939 9.421874
v 5.167969 -5.750001 9.710937
v 4.285156 -6.882814 8.749999
v 5.246094 -7.046876 8.968749
v 4.394531 -7.347658 7.480467
v 5.386719 -7.558595 7.570311
v 4.503906 -6.882813 6.214843
v 5.527344 -7.046876 6.167968
v 4.566406 -5.710938 5.539062
v 5.597656 -5.750001 5.421874
v 4.542969 -4.378907 5.773437
v 5.570312 -4.273438 5.679687
v 3.929688 -3.953126 7.441406
v 3.808594 -5.121095 8.828124
v 3.888672 -6.695314 7.921874
v 4.035156 -6.074220 6.218749
v 4.042969 -4.617188 6.140624
vt 0.344971 0.479492
vt 0.341064 0.502441
vt 0.242676 0.496582
vt 0.247925 0.465332
vt 0.340820 0.520996
vt 0.385010 0.525879
vt 0.384521 0.532715
vt 0.339600 0.533203
vt 0.340088 0.605957
vt 0.384766 0.604980
vt 0.385498 0.612305
vt 0.341797 0.618652
vt 0.369385 0.470703
vt 0.365723 0.499023
vt 0.343262 0.643799
vt 0.365479 0.628662
vt 0.367920 0.646729
vt 0.239868 0.528076
vt 0.336426 0.569580
vt 0.237793 0.559082
vt 0.362549 0.545166
vt 0.361816 0.569092
vt 0.364502 0.510498
vt 0.362305 0.593018
vt 0.373535 0.457520
vt 0.387695 0.473633
vt 0.415527 0.526367
vt 0.415771 0.539307
vt 0.415771 0.598389
vt 0.415771 0.610840
vt 0.347412 0.670898
vt 0.248779 0.680908
vt 0.244507 0.650635
vt 0.241821 0.624512
vt 0.238647 0.591553
vt 0.258057 0.410645
vt 0.301025 0.417480
vt 0.372559 0.673096
vt 0.364502 0.700439
vt 0.351562 0.695068
vt 0.321533 0.718018
vt 0.303467 0.738281
vt 0.257080 0.726807
vt 0.291504 0.401855
vt 0.386963 0.648682
vt 0.417969 0.628662
vt 0.394531 0.656250
vt 0.410156 0.624756
vt 0.363770 0.432617
vt 0.380615 0.447266
vt 0.357666 0.444336
vt 0.309814 0.406738
vt 0.302002 0.393066
vt 0.396729 0.467773
vt 0.420166 0.507080
vt 0.411377 0.510254
vt 0.425049 0.524902
vt 0.424072 0.569092
vt 0.416748 0.568848
vt 0.425293 0.611572
vt 0.382080 0.681152
vt 0.371582 0.710449
vt 0.329590 0.728516
vt 0.311768 0.748779
vt 0.289062 0.373047
vt 0.296143 0.361328
vt 0.272949 0.352539
vt 0.267334 0.367188
vt 0.292480 0.759888
vt 0.292725 0.777832
vt 0.269043 0.783813
vt 0.265381 0.769897
vt 0.302734 0.767090
vt 0.039154 0.747803
vt 0.049286 0.785034
vt 0.007259 0.771729
vt 0.004230 0.750122
vt 0.011108 0.801758
vt 0.053070 0.840942
vt 0.047760 0.893494
vt 0.012550 0.864868
vt 0.041687 0.919495
vt 0.008499 0.898010
vt 0.030533 0.703857
vt 0.016876 0.726074
vt 0.013229 0.833618
vt 0.002623 0.930420
vt 0.017960 0.937988
vt 0.033508 0.961670
vt 0.334961 0.802856
vt 0.353516 0.782227
vt 0.371826 0.803833
vt 0.393066 0.822388
vt 0.373779 0.864868
vt 0.363281 0.846558
vt 0.356934 0.873779
vt 0.352783 0.857788
vt 0.330322 0.875366
vt 0.335205 0.859741
vt 0.307861 0.862427
vt 0.319824 0.851440
vt 0.296875 0.838989
vt 0.312744 0.835449
vt 0.300781 0.813110
vt 0.316162 0.818359
vt 0.317871 0.791382
vt 0.359619 0.897522
vt 0.378906 0.886108
vt 0.323486 0.897400
vt 0.291016 0.877869
vt 0.274170 0.843506
vt 0.278076 0.806763
vt 0.296387 0.779053
vt 0.407715 0.878357
vt 0.413574 0.826294
vt 0.436035 0.821045
vt 0.444336 0.871094
vt 0.478271 0.860352
vt 0.458984 0.808228
vt 0.340576 0.759399
vt 0.477539 0.797852
vt 0.495361 0.846313
vt 0.927246 0.460449
vt 0.924316 0.439941
vt 0.969238 0.450684
vt 0.957031 0.468750
vt 0.900391 0.476074
vt 0.884277 0.462402
vt 0.890625 0.505859
vt 0.869141 0.505859
vt 0.900879 0.535645
vt 0.883301 0.549072
vt 0.926270 0.553955
vt 0.921387 0.574951
vt 0.957031 0.550049
vt 0.967773 0.569092
vt 0.976074 0.525635
vt 0.997070 0.533203
vt 0.975098 0.494141
vt 0.996582 0.487305
vt 0.938965 0.476562
vt 0.907227 0.494629
vt 0.920898 0.534424
vt 0.956543 0.530273
vt 0.961914 0.498535
vn 0.8950 -0.3193 0.3115
vn 0.6952 -0.6323 0.3417
vn 0.7110 -0.7031 0.0118
vn 0.9270 -0.3748 0.0118
vn 0.6464 -0.7404 0.1842
vn 0.9276 -0.3039 0.2171
vn -0.2235 -0.9449 0.2392
vn 0.2551 -0.9460 0.2002
vn -0.2701 -0.9435 0.1918
vn 0.2081 -0.9540 0.2159
vn -0.9371 -0.2862 0.2000
vn -0.6843 -0.7077 0.1760
vn 0.9235 -0.2712 0.2712
vn 0.6860 -0.6155 0.3881
vn -0.7802 -0.5294 0.3332
vn -0.9496 -0.1837 0.2540
vn -0.7623 -0.5355 0.3636
vn 0.4361 -0.8997 0.0196
vn -0.0039 -0.9282 0.3721
vn 0.1130 -0.9934 0.0195
vn -0.3388 -0.8918 0.2999
vn -0.0039 -0.9074 0.4203
vn 0.9338 -0.2325 0.2719
vn 0.3186 -0.9008 0.2950
vn 0.9209 0.2332 0.3123
vn 0.9133 -0.0040 0.4072
vn 0.5060 -0.4275 0.7491
vn 0.0982 -0.6797 0.7269
vn -0.1131 -0.6828 0.7218
vn -0.5938 -0.3264 0.7354
vn -0.9024 -0.3008 0.3086
vn -0.9461 -0.3232 0.0195
vn -0.8014 -0.5981 0.0118
vn -0.5664 -0.8241 0.0039
vn -0.2526 -0.9675 0.0116
vn 0.9856 -0.1610 0.0510
vn 0.9454 0.1780 0.2729
vn -0.7561 -0.0196 0.6542
vn -0.7103 0.3101 0.6319
vn -0.9485 0.0195 0.3162
vn -0.9440 0.2625 0.1998
vn -0.9193 0.2621 0.2934
vn -0.9952 -0.0976 0.0039
vn 0.8986 0.1147 0.4235
vn -0.9376 -0.1216 0.3256
vn -0.7439 0.3346 0.5786
vn -0.9016 -0.1600 0.4020
vn 0.7222 0.5959 0.3512
vn 0.7232 0.5334 0.4386
vn 0.8802 0.3434 0.3276
vn 0.6205 0.5889 0.5178
vn 0.4374 0.3428 0.8314
vn 0.6506 0.4613 0.6033
vn 0.5965 0.2252 0.7704
vn 0.8284 -0.2395 0.5064
vn 0.2173 0.0039 0.9761
vn -0.0196 -0.2397 0.9706
vn 0.0117 -0.7947 0.6068
vn -0.2396 0.0354 0.9702
vn -0.5384 0.2712 0.7978
vn -0.6402 0.5067 0.5774
vn -0.6696 0.6383 0.3798
vn -0.6099 0.5154 0.6020
vn 0.8080 0.3666 0.4612
vn 0.6330 0.6645 0.3971
vn 0.6911 0.7227 -0.0039
vn 0.9335 0.3585 0.0039
vn -0.8874 0.3558 0.2932
vn -0.7881 0.5920 0.1686
vn -0.7502 0.6560 0.0825
vn -0.9149 0.3966 0.0746
vn -0.6177 0.5154 0.5940
vn 0.8742 -0.3381 0.3485
vn 0.4147 -0.7679 0.4882
vn 0.6324 -0.6403 0.4360
vn 0.8970 -0.3280 0.2964
vn 0.2151 -0.8408 0.4967
vn -0.0631 -0.9170 0.3939
vn -0.6650 -0.7010 0.2576
vn -0.3472 -0.8857 0.3082
vn -0.9645 -0.2531 0.0749
vn -0.8313 -0.5425 0.1210
vn 0.9798 -0.0822 0.1821
vn 0.9778 -0.0825 0.1924
vn 0.0118 -0.9146 0.4043
vn -0.9671 -0.2545 0.0039
vn -0.9823 -0.1839 0.0352
vn -0.9936 -0.0898 0.0689
vn 0.9500 -0.2168 -0.2247
vn 0.9397 -0.2713 -0.2084
vn 0.9966 -0.0039 0.0827
vn 0.9477 0.0197 0.3185
vn 0.4931 0.4063 0.7692
vn 0.9011 0.2558 0.3502
vn 0.2971 0.4159 0.8595
vn 0.8608 0.2005 0.4677
vn 0.2785 -0.1687 0.9455
vn 0.8532 -0.0826 0.5151
vn 0.3027 -0.7195 0.6251
vn 0.8665 -0.3490 0.3568
vn 0.3557 -0.9342 0.0273
vn 0.8896 -0.4507 0.0745
vn 0.4026 -0.7309 -0.5511
vn 0.9127 -0.3565 -0.1998
vn 0.4581 -0.5756 -0.6774
vn -0.0197 0.3420 0.9395
vn 0.1693 0.2008 0.9649
vn -0.0905 -0.1771 0.9800
vn -0.0586 -0.7691 0.6364
vn -0.0039 -1.0000 -0.0039
vn 0.0506 -0.7833 -0.6196
vn 0.0584 -0.6193 -0.7829
vn 0.5713 0.1458 0.8077
vn 0.7429 0.0826 0.6643
vn 0.7153 0.1779 0.6758
vn 0.6958 0.0982 0.7115
vn 0.6967 0.4448 0.5628
vn 0.6990 0.5174 0.4937
vn 0.6220 -0.5986 -0.5047
vn 0.6351 0.6654 0.3923
vn 0.6155 0.6890 0.3826
vn -0.5540 0.7898 0.2633
vn -0.2481 0.9174 0.3111
vn -0.1847 0.9155 -0.3575
vn -0.4974 0.7873 -0.3643
vn -0.5931 0.4439 0.6717
vn -0.2955 0.4845 0.8234
vn -0.6000 -0.1765 0.7803
vn -0.3019 -0.1764 0.9369
vn -0.5751 -0.6377 0.5125
vn -0.2698 -0.7546 0.5982
vn -0.5211 -0.8502 -0.0744
vn -0.2065 -0.9781 -0.0273
vn -0.4789 -0.6657 -0.5723
vn -0.1527 -0.7479 -0.6461
vn -0.4184 -0.1525 -0.8954
vn -0.1207 -0.1752 -0.9771
vn -0.4104 0.4495 -0.7934
vn -0.1294 0.4822 -0.8664
vn -0.9150 0.3966 -0.0746
vn -0.9512 0.0665 0.3014
vn -0.9270 -0.3716 0.0508
vn -0.8849 -0.2222 -0.4093
vn -0.8507 0.2705 -0.4508
usemtl Material.000025
s 1
f 4/1/1 5/2/2 6/3/3
f 6/3/3 7/4/4 4/1/1
f 8/5/5 9/6/6 10/7/7
f 10/7/7 11/8/8 8/5/5
f 12/9/9 13/10/10 14/11/11
f 14/11/11 15/12/12 12/9/9
f 4/1/1 16/13/13 17/14/14
f 17/14/14 5/2/2 4/1/1
f 18/15/15 15/12/12 19/16/16
f 19/16/16 20/17/17 18/15/15
f 5/2/2 8/5/5 21/18/18
f 21/18/18 6/3/3 5/2/2
f 11/8/8 22/19/19 23/20/20
f 23/20/20 21/18/18 11/8/8
f 24/21/21 25/22/22 22/19/19
f 22/19/19 11/8/8 24/21/21
f 26/23/23 8/5/5 5/2/2
f 5/2/2 17/14/14 26/23/23
f 27/24/24 12/9/9 22/19/19
f 22/19/19 25/22/22 27/24/24
f 28/25/25 29/26/26 16/13/13
f 16/13/13 29/26/26 17/14/14
f 9/6/6 30/27/27 31/28/28
f 31/28/28 10/7/7 9/6/6
f 14/11/11 13/10/10 32/29/29
f 32/29/29 33/30/30 14/11/11
f 34/31/31 35/32/32 36/33/33
f 36/33/33 18/15/15 34/31/31
f 15/12/12 18/15/15 36/33/33
f 36/33/33 37/34/34 15/12/12
f 22/19/19 12/9/9 38/35/35
f 7/4/4 39/36/36 40/37/37
f 32/29/29 13/10/10 27/24/24
f 14/11/11 33/30/30 19/16/16
f 12/9/9 27/24/24 13/10/10
f 26/23/23 30/27/27 9/6/6
f 8/5/5 26/23/23 9/6/6
f 11/8/8 10/7/7 24/21/21
f 31/28/28 24/21/21 10/7/7
f 19/16/16 15/12/12 14/11/11
f 34/31/31 41/38/38 42/39/39
f 42/39/39 43/40/40 34/31/31
f 44/41/41 45/42/42 46/43/43
f 43/40/40 42/39/39 44/41/41
f 39/36/36 47/44/44 40/37/37
f 20/17/17 48/45/45 41/38/38
f 20/17/17 41/38/38 34/31/31
f 34/31/31 18/15/15 20/17/17
f 49/46/39 50/47/46 48/45/45
f 48/45/45 51/48/47 49/46/39
f 52/49/48 53/50/49 28/25/25
f 28/25/25 54/51/50 52/49/48
f 40/37/37 55/52/51 52/49/48
f 52/49/48 54/51/50 40/37/37
f 47/44/44 56/53/52 55/52/51
f 55/52/51 40/37/37 47/44/44
f 57/54/53 58/55/54 59/56/55
f 59/56/55 29/26/26 57/54/53
f 31/28/28 60/57/56 61/58/57
f 61/58/57 62/59/58 31/28/28
f 33/30/30 63/60/59 49/46/39
f 49/46/39 51/48/47 33/30/30
f 58/55/54 60/57/56 30/27/27
f 30/27/27 59/56/55 58/55/54
f 32/29/29 63/60/59 33/30/30
f 28/25/25 53/50/49 57/54/53
f 57/54/53 29/26/26 28/25/25
f 41/38/38 64/61/60 65/62/61
f 65/62/61 42/39/39 41/38/38
f 66/63/62 67/64/63 45/42/42
f 45/42/42 44/41/41 66/63/62
f 42/39/39 65/62/61 66/63/62
f 66/63/62 44/41/41 42/39/39
f 68/65/64 69/66/65 56/53/52
f 56/53/52 47/44/44 68/65/64
f 70/67/66 69/66/65 68/65/64
f 68/65/64 71/68/67 70/67/66
f 72/69/68 73/70/69 74/71/70
f 74/71/70 75/72/71 72/69/68
f 72/69/68 76/73/72 73/70/69
f 50/47/46 64/61/60 41/38/38
f 41/38/38 48/45/45 50/47/46
f 27/24/24 25/22/22 62/59/58
f 62/59/58 32/29/29 27/24/24
f 72/69/68 45/42/42 67/64/63
f 67/64/63 76/73/72 72/69/68
f 29/26/26 59/56/55 17/14/14
f 59/56/55 30/27/27 26/23/23
f 26/23/23 17/14/14 59/56/55
f 31/28/28 62/59/58 25/22/22
f 25/22/22 24/21/21 31/28/28
f 19/16/16 33/30/30 51/48/47
f 51/48/47 20/17/17 19/16/16
f 20/17/17 51/48/47 48/45/45
f 46/43/43 35/32/32 34/31/31
f 46/43/43 34/31/31 43/40/40
f 44/41/41 46/43/43 43/40/40
f 54/51/50 28/25/25 16/13/13
f 16/13/13 4/1/1 54/51/50
f 22/19/19 38/35/35 23/20/20
f 38/35/35 12/9/9 15/12/12
f 15/12/12 37/34/34 38/35/35
f 21/18/18 8/5/5 11/8/8
f 77/74/73 78/75/74 79/76/75
f 79/76/75 80/77/76 77/74/73
f 78/75/74 81/78/77 79/76/75
f 82/79/78 83/80/79 84/81/80
f 83/80/79 85/82/81 86/83/82
f 88/84/83 77/74/73 89/85/84
f 78/75/74 82/79/78 91/86/85
f 91/86/85 81/78/77 78/75/74
f 82/79/78 84/81/80 91/86/85
f 92/87/86 86/83/82 85/82/81
f 85/82/81 93/88/87 92/87/86
f 93/88/87 85/82/81 87/89/88
f 80/77/76 89/85/84 77/74/73
f 83/80/79 86/83/82 84/81/80
f 94/90/89 95/91/90 96/92/91
f 97/93/92 98/94/93 99/95/94
f 100/96/95 101/97/96 99/95/94
f 99/95/94 98/94/93 100/96/95
f 102/98/97 103/99/98 101/97/96
f 101/97/96 100/96/95 102/98/97
f 104/100/99 105/101/100 103/99/98
f 103/99/98 102/98/97 104/100/99
f 106/102/101 107/103/102 105/101/100
f 105/101/100 104/100/99 106/102/101
f 108/104/103 109/105/104 107/103/102
f 107/103/102 106/102/101 108/104/103
f 110/106/105 94/90/89 109/105/104
f 109/105/104 108/104/103 110/106/105
f 94/90/89 99/95/94 101/97/96
f 101/97/96 109/105/104 94/90/89
f 105/101/100 107/103/102 109/105/104
f 105/101/100 109/105/104 101/97/96
f 103/99/98 105/101/100 101/97/96
f 111/107/106 100/96/95 98/94/93
f 98/94/93 112/108/107 111/107/106
f 113/109/108 102/98/97 100/96/95
f 100/96/95 111/107/106 113/109/108
f 113/109/108 114/110/109 104/100/99
f 104/100/99 102/98/97 113/109/108
f 114/110/109 115/111/110 106/102/101
f 106/102/101 104/100/99 114/110/109
f 115/111/110 116/112/111 108/104/103
f 108/104/103 106/102/101 115/111/110
f 117/113/112 110/106/105 108/104/103
f 108/104/103 116/112/111 117/113/112
f 118/114/113 119/115/114 120/116/115
f 120/116/115 121/117/116 118/114/113
f 122/118/117 121/117/116 120/116/115
f 120/116/115 123/119/118 122/118/117
f 117/113/112 124/120/119 110/106/105
f 95/91/90 94/90/89 110/106/105
f 110/106/105 124/120/119 95/91/90
f 99/95/94 94/90/89 96/92/91
f 125/121/120 126/122/121 122/118/117
f 122/118/117 123/119/118 125/121/120
f 98/94/93 97/93/92 119/115/114
f 127/123/122 128/124/123 129/125/124
f 129/125/124 130/126/125 127/123/122
f 131/127/126 132/128/127 128/124/123
f 128/124/123 127/123/122 131/127/126
f 133/129/128 134/130/129 132/128/127
f 132/128/127 131/127/126 133/129/128
f 135/131/130 136/132/131 134/130/129
f 134/130/129 133/129/128 135/131/130
f 137/133/132 138/134/133 136/132/131
f 136/132/131 135/131/130 137/133/132
f 139/135/134 140/136/135 138/134/133
f 138/134/133 137/133/132 139/135/134
f 141/137/136 142/138/137 140/136/135
f 140/136/135 139/135/134 141/137/136
f 143/139/138 144/140/139 142/138/137
f 142/138/137 141/137/136 143/139/138
f 130/126/125 129/125/124 144/140/139
f 144/140/139 143/139/138 130/126/125
f 127/123/122 145/141/140 146/142/141
f 146/142/141 131/127/126 127/123/122
f 131/127/126 146/142/141 133/129/128
f 133/129/128 146/142/141 147/143/142
f 147/143/142 135/131/130 133/129/128
f 135/131/130 147/143/142 137/133/132
f 137/133/132 147/143/142 148/144/143
f 148/144/143 139/135/134 137/133/132
f 139/135/134 148/144/143 141/137/136
f 141/137/136 148/144/143 149/145/144
f 149/145/144 143/139/138 141/137/136
f 143/139/138 149/145/144 145/141/140
f 145/141/140 130/126/125 143/139/138
f 130/126/125 145/141/140 127/123/122
f 118/114/113 112/108/107 98/94/93
f 96/92/91 97/93/92 99/95/94
f 98/94/93 119/115/114 118/114/113
f 145/141/140 148/144/143 147/143/142
f 147/143/142 146/142/141 145/141/140
f 145/141/140 149/145/144 148/144/143
f 71/68/67 68/65/64 47/44/44
f 47/44/44 39/36/36 71/68/67
f 40/37/37 54/51/50 4/1/1
f 4/1/1 7/4/4 40/37/37
f 45/42/42 72/69/68 46/43/43
f 72/69/68 75/72/71 46/43/43
f 31/28/28 30/27/27 60/57/56
f 62/59/58 61/58/57 63/60/59
f 63/60/59 32/29/29 62/59/58
l 87 90
l 2 3
